<svg width="18" height="18" viewBox="0 0 18 18" fill="none" xmlns="http://www.w3.org/2000/svg">
<path fill-rule="evenodd" clip-rule="evenodd" d="M11.4227 12.5999C10.2938 13.4774 8.87523 14 7.33464 14C3.65274 14 0.667969 11.0152 0.667969 7.33333C0.667969 3.65143 3.65274 0.666664 7.33464 0.666664C11.0165 0.666664 14.0013 3.65143 14.0013 7.33333C14.0013 8.87392 13.4787 10.2925 12.6012 11.4214L17.0906 15.9107C17.416 16.2362 17.416 16.7638 17.0906 17.0893C16.7651 17.4147 16.2375 17.4147 15.912 17.0893L11.4227 12.5999ZM12.3346 7.33333C12.3346 10.0948 10.0961 12.3333 7.33464 12.3333C4.57321 12.3333 2.33464 10.0948 2.33464 7.33333C2.33464 4.57191 4.57321 2.33333 7.33464 2.33333C10.0961 2.33333 12.3346 4.57191 12.3346 7.33333Z" fill="#777E91"/>
</svg>
