<svg width="41" height="40" viewBox="0 0 41 40" fill="none" xmlns="http://www.w3.org/2000/svg">
<path fill-rule="evenodd" clip-rule="evenodd" d="M17.9988 18.3666C18.0233 18.8262 17.6706 19.2186 17.211 19.2431C16.5838 19.2765 16.087 19.3174 15.6988 19.3584C15.1774 19.4133 14.8606 19.7336 14.808 20.1942C14.7324 20.8556 14.6667 21.8565 14.6667 23.3334C14.6667 24.8102 14.7324 25.8111 14.808 26.4725C14.8607 26.9339 15.1767 27.2532 15.6973 27.3082C16.609 27.4044 18.116 27.5 20.5 27.5C22.884 27.5 24.391 27.4044 25.3027 27.3082C25.8233 27.2532 26.1393 26.9339 26.192 26.4725C26.2676 25.8111 26.3333 24.8102 26.3333 23.3334C26.3333 21.8565 26.2676 20.8556 26.192 20.1942C26.1394 19.7336 25.8226 19.4133 25.3012 19.3584C24.913 19.3174 24.4162 19.2765 23.789 19.2431C23.3294 19.2186 22.9767 18.8262 23.0012 18.3666C23.0257 17.907 23.4181 17.5543 23.8777 17.5788C24.5301 17.6136 25.0558 17.6566 25.476 17.7009C26.713 17.8314 27.6997 18.7089 27.8479 20.0049C27.9323 20.7436 28 21.8096 28 23.3334C28 24.8571 27.9323 25.9231 27.8479 26.6618C27.6998 27.957 26.7154 28.835 25.4776 28.9656C24.4933 29.0695 22.9257 29.1667 20.5 29.1667C18.0743 29.1667 16.5067 29.0695 15.5224 28.9656C14.2846 28.835 13.3002 27.957 13.1521 26.6618C13.0677 25.9231 13 24.8571 13 23.3334C13 21.8096 13.0677 20.7436 13.1521 20.0049C13.3003 18.7089 14.287 17.8314 15.524 17.7009C15.9442 17.6566 16.4699 17.6136 17.1223 17.5788C17.5819 17.5543 17.9743 17.907 17.9988 18.3666Z" fill="#777E91"/>
<path fill-rule="evenodd" clip-rule="evenodd" d="M18.1726 15.1726C17.8472 15.498 17.3195 15.498 16.9941 15.1726C16.6686 14.8471 16.6686 14.3195 16.9941 13.9941L19.9107 11.0774C20.2362 10.752 20.7638 10.752 21.0893 11.0774L24.0059 13.9941C24.3314 14.3195 24.3314 14.8471 24.0059 15.1726C23.6805 15.498 23.1528 15.498 22.8274 15.1726L21.3333 13.6785V21.6666C21.3333 22.1269 20.9602 22.5 20.5 22.5C20.0398 22.5 19.6667 22.1269 19.6667 21.6666V13.6785L18.1726 15.1726Z" fill="#777E91"/>
<rect x="1.5" y="1" width="38" height="38" rx="19" stroke="#E6E8EC" stroke-width="2"/>
</svg>
